<svg xmlns="http://www.w3.org/2000/svg" version="1.1" xmlns:xlink="http://www.w3.org/1999/xlink" xmlns:svgjs="http://svgjs.com/svgjs" width="512" height="512" x="0" y="0" viewBox="0 0 512 512" style="enable-background:new 0 0 512 512" xml:space="preserve" class=""><g><g xmlns="http://www.w3.org/2000/svg"><path d="m180.017 229.805c-10.61 10.61-10.61 27.875 0 38.485l45.537 45.537c10.637 10.635 27.849 10.636 38.486 0l67.375-67.375c10.61-10.611 10.61-27.875 0-38.486-10.634-10.635-27.851-10.637-38.486 0l-48.132 48.132-26.293-26.293c-10.635-10.635-27.85-10.637-38.487 0zm70.084 42.203 53.436-53.435c4.772-4.773 12.498-4.774 17.271 0 4.763 4.762 4.763 12.511 0 17.273l-67.375 67.375c-4.762 4.762-12.51 4.762-17.271 0l-45.537-45.537c-4.763-4.762-4.763-12.51-.001-17.272 4.774-4.773 12.499-4.775 17.273 0l31.597 31.596c2.929 2.929 7.677 2.929 10.607 0z" fill="#000000" data-original="#000000" class=""></path><path d="m490.127 208.785h-32.859c-3.079 0-5.802-2.131-6.622-5.183-4.521-16.83-11.243-33.04-19.98-48.18-1.576-2.731-1.146-6.169 1.046-8.362l23.227-23.227c4.132-4.131 6.407-9.624 6.407-15.467 0-5.842-2.275-11.335-6.406-15.466l-35.84-35.839c-8.527-8.527-22.404-8.527-30.934 0l-23.226 23.228c-2.194 2.194-5.632 2.623-8.362 1.047-15.137-8.737-31.347-15.459-48.181-19.981-3.052-.82-5.183-3.542-5.183-6.622v-32.86c.001-12.061-9.812-21.873-21.872-21.873h-50.684c-12.061 0-21.873 9.812-21.873 21.873v32.859c0 3.079-2.131 5.802-5.184 6.622-16.835 4.522-33.045 11.245-48.179 19.981-2.734 1.578-6.171 1.146-8.362-1.046l-23.228-23.227c-4.131-4.131-9.624-6.406-15.467-6.406-5.842 0-11.335 2.275-15.467 6.406l-35.837 35.838c-8.527 8.528-8.526 22.404 0 30.932l23.228 23.228c2.192 2.192 2.623 5.631 1.047 8.362-8.737 15.139-15.46 31.349-19.981 48.181-.819 3.052-3.542 5.183-6.621 5.183h-32.861c-12.061-.001-21.873 9.811-21.873 21.872v50.684c0 12.061 9.812 21.873 21.873 21.873h32.859c3.079 0 5.802 2.131 6.621 5.183 4.521 16.83 11.243 33.041 19.981 48.18 1.576 2.731 1.146 6.17-1.047 8.362l-23.228 23.228c-8.527 8.527-8.527 22.403 0 30.933l35.84 35.839c4.131 4.131 9.624 6.406 15.466 6.406 5.843 0 11.336-2.275 15.467-6.406l23.228-23.227c2.192-2.191 5.63-2.622 8.361-1.047 15.135 8.736 31.345 15.459 48.181 19.981 3.052.82 5.183 3.542 5.183 6.622v32.859c0 12.061 9.812 21.873 21.873 21.873h50.684c12.061 0 21.873-9.812 21.873-21.873v-32.859c0-3.079 2.131-5.802 5.184-6.622 16.833-4.522 33.043-11.245 48.18-19.981 2.73-1.576 6.17-1.145 8.361 1.046l23.228 23.228c8.528 8.529 22.405 8.527 30.934 0l35.838-35.838c4.131-4.131 6.406-9.624 6.406-15.467s-2.275-11.335-6.406-15.466l-23.228-23.227c-2.192-2.193-2.622-5.631-1.046-8.363 8.737-15.141 15.46-31.351 19.98-48.179.82-3.052 3.543-5.184 6.622-5.184h32.859c12.061 0 21.873-9.812 21.873-21.873v-7.843c0-4.142-3.357-7.5-7.5-7.5s-7.5 3.358-7.5 7.5v7.842c0 3.79-3.083 6.873-6.873 6.873h-32.859c-9.851 0-18.531 6.699-21.108 16.292-4.182 15.568-10.401 30.564-18.486 44.574-4.963 8.599-3.552 19.482 3.431 26.466l23.229 23.228c1.298 1.298 2.013 3.023 2.013 4.859s-.715 3.562-2.014 4.86l-35.837 35.838c-2.681 2.68-7.04 2.681-9.721 0l-23.228-23.228c-6.983-6.983-17.868-8.394-26.466-3.431-14.006 8.083-29.002 14.303-44.573 18.486-9.593 2.577-16.292 11.256-16.292 21.108v32.859c0 3.79-3.083 6.873-6.873 6.873h-50.684c-3.79 0-6.873-3.083-6.873-6.873v-32.859c0-9.852-6.699-18.531-16.291-21.108-15.573-4.184-30.57-10.403-44.575-18.487-8.598-4.963-19.482-3.55-26.466 3.432l-23.228 23.227c-1.298 1.298-3.023 2.013-4.859 2.013s-3.562-.715-4.859-2.013l-35.839-35.838c-2.68-2.68-2.68-7.041 0-9.72l23.228-23.228c6.982-6.983 8.394-17.866 3.432-26.466-8.085-14.008-14.306-29.005-18.487-44.573-2.576-9.592-11.256-16.292-21.107-16.292h-32.862c-3.79 0-6.873-3.083-6.873-6.873v-50.684c0-3.79 3.083-6.873 6.873-6.873h32.859c9.852 0 18.531-6.7 21.107-16.292 4.183-15.57 10.402-30.566 18.487-44.575 4.962-8.6 3.551-19.482-3.432-26.465l-23.228-23.228c-2.68-2.68-2.68-7.04 0-9.72l35.838-35.838c1.299-1.298 3.024-2.013 4.86-2.013s3.562.715 4.86 2.013l23.227 23.227c6.982 6.981 17.865 8.394 26.467 3.432 14.004-8.083 29.001-14.303 44.573-18.486 9.593-2.577 16.292-11.256 16.292-21.108v-32.858c0-3.79 3.083-6.873 6.873-6.873h50.684c3.79 0 6.873 3.083 6.873 6.873v32.859c0 9.852 6.699 18.531 16.291 21.108 15.572 4.183 30.568 10.403 44.574 18.486 8.603 4.964 19.482 3.552 26.467-3.431l23.226-23.227c2.681-2.68 7.04-2.68 9.721 0l35.838 35.838c1.299 1.298 2.014 3.024 2.014 4.86s-.715 3.562-2.014 4.86l-23.228 23.228c-6.982 6.984-8.394 17.867-3.431 26.466 8.085 14.008 14.305 29.005 18.486 44.574 2.577 9.592 11.258 16.291 21.108 16.291h32.859c3.79 0 6.873 3.083 6.873 6.873v7.842c0 4.142 3.357 7.5 7.5 7.5s7.5-3.358 7.5-7.5v-7.842c.003-12.061-9.809-21.873-21.87-21.873z" fill="#000000" data-original="#000000" class=""></path><path d="m237.525 116.38c-69.753 9.146-122.354 69.169-122.354 139.62 0 77.652 63.175 140.828 140.828 140.828 77.652 0 140.827-63.175 140.827-140.828 0-70.451-52.6-130.474-122.353-139.62-4.096-.533-7.873 2.354-8.411 6.461s2.354 7.873 6.462 8.412c62.312 8.17 109.302 61.8 109.302 124.747 0 69.381-56.446 125.828-125.827 125.828-69.382 0-125.828-56.446-125.828-125.828 0-62.947 46.99-116.577 109.303-124.747 4.107-.539 7-4.305 6.462-8.412-.539-4.108-4.321-6.994-8.411-6.461z" fill="#000000" data-original="#000000" class=""></path></g></g></svg>